<svg xmlns="http://www.w3.org/2000/svg" xmlns:xlink="http://www.w3.org/1999/xlink" width="1em" height="1em" preserveAspectRatio="xMidYMid meet" viewBox="0 0 1024 1024" style="-ms-transform: rotate(360deg); -webkit-transform: rotate(360deg); transform: rotate(360deg);"><path d="M442.3 677.6l199.4-156.7a11.3 11.3 0 0 0 0-17.7L442.3 346.4c-7.4-5.8-18.3-.6-18.3 8.8v313.5c0 9.4 10.9 14.7 18.3 8.9z" fill="#A0AAB2"/><path d="M880 112H144c-17.7 0-32 14.3-32 32v736c0 17.7 14.3 32 32 32h736c17.7 0 32-14.3 32-32V144c0-17.7-14.3-32-32-32zm-40 728H184V184h656v656z" fill="#A0AAB2"/></svg>