<svg xmlns="http://www.w3.org/2000/svg" xmlns:xlink="http://www.w3.org/1999/xlink" width="1em" height="1em" preserveAspectRatio="xMidYMid meet" viewBox="0 0 32 32" style="-ms-transform: rotate(360deg); -webkit-transform: rotate(360deg); transform: rotate(360deg);"><path d="M22 26H10a2 2 0 0 1-2-2V8a2 2 0 0 1 2-2h12a2 2 0 0 1 2 2v16a2 2 0 0 1-2 2zM10 8v16h12V8z" fill="#A0AAB2"/><path d="M4 24H0v-2h4V10H0V8h4a2 2 0 0 1 2 2v12a2 2 0 0 1-2 2z" fill="#A0AAB2"/><path d="M32 24h-4a2 2 0 0 1-2-2V10a2 2 0 0 1 2-2h4v2h-4v12h4z" fill="#A0AAB2"/></svg>