<svg xmlns="http://www.w3.org/2000/svg" xmlns:xlink="http://www.w3.org/1999/xlink" width="1em" height="1em" preserveAspectRatio="xMidYMid meet" viewBox="0 0 20 20" style="-ms-transform: rotate(360deg); -webkit-transform: rotate(360deg); transform: rotate(360deg);"><g fill="none"><path d="M2.75 4.5a.75.75 0 0 0 0 1.5h14.5a.75.75 0 0 0 0-1.5H2.75z" fill="#a0aab2"/><path d="M2.75 7.5a.75.75 0 0 0 0 1.5h14.5a.75.75 0 0 0 0-1.5H2.75z" fill="#a0aab2"/><path d="M2 11.25a.75.75 0 0 1 .75-.75h14.5a.75.75 0 0 1 0 1.5H2.75a.75.75 0 0 1-.75-.75z" fill="#a0aab2"/><path d="M2.75 13.5a.75.75 0 0 0 0 1.5h9.5a.75.75 0 0 0 0-1.5h-9.5z" fill="#a0aab2"/></g></svg>